<svg xmlns="http://www.w3.org/2000/svg" xmlns:xlink="http://www.w3.org/1999/xlink" width="50.889" height="50.889" viewBox="0 0 50.889 50.889"><defs><style>.a{fill:url(#a);}</style><linearGradient id="a" x1="0.093" y1="0.079" x2="0.957" y2="0.937" gradientUnits="objectBoundingBox"><stop offset="0" stop-color="#013bdf"/><stop offset="1" stop-color="#e87575"/></linearGradient></defs><path class="a" d="M40.452,0H10.436A10.448,10.448,0,0,0,0,10.436V40.452A10.448,10.448,0,0,0,10.436,50.889H40.452A10.448,10.448,0,0,0,50.889,40.452V10.436A10.448,10.448,0,0,0,40.452,0ZM15.669,39.212a2.485,2.485,0,0,1-4.3-2.485l.489-.846h5.738Zm-4.686-5.319a2.485,2.485,0,0,1,0-4.97h4.888l6.7-11.612-1.817-3.147a2.488,2.488,0,0,1,.909-3.394h0a2.488,2.488,0,0,1,3.394.91l.382.662.382-.662a2.485,2.485,0,1,1,4.3,2.485L21.609,28.923h5.375l2.869,4.97Zm28.923,0H37.887l1.636,2.834a2.485,2.485,0,1,1-4.3,2.485L26.592,24.268l2.869-4.97,5.557,9.625h4.888a2.485,2.485,0,0,1,0,4.97Z"/></svg>