<svg xmlns="http://www.w3.org/2000/svg" xmlns:xlink="http://www.w3.org/1999/xlink" width="47.708" height="50.897" viewBox="0 0 47.708 50.897"><defs><style>.a{fill:url(#a);}.b{fill:url(#b);}.c{fill:url(#c);}.d{fill:url(#d);}</style><linearGradient id="a" x1="0.5" x2="0.5" y2="1" gradientUnits="objectBoundingBox"><stop offset="0" stop-color="#1800ee"/><stop offset="1" stop-color="#810094"/></linearGradient><linearGradient id="b" y1="0.5" x2="1" y2="0.5" gradientUnits="objectBoundingBox"><stop offset="0" stop-color="#ff6a07"/><stop offset="1" stop-color="#e9b825"/></linearGradient><linearGradient id="c" x1="0.5" x2="0.5" y2="1" gradientUnits="objectBoundingBox"><stop offset="0" stop-color="#0ec298"/><stop offset="1" stop-color="#228a61"/></linearGradient><linearGradient id="d" x1="0.5" x2="0.5" y2="1" gradientUnits="objectBoundingBox"><stop offset="0" stop-color="#ca3d00"/><stop offset="1" stop-color="#a90c8a"/></linearGradient></defs><path class="a" d="M42.473,40.651,17.856,65.269a5.836,5.836,0,0,1-1.813-4.294V22.363a5.915,5.915,0,0,1,1.877-4.357Z" transform="translate(-16.043 -16.216)"/><path class="b" d="M303.241,163.576a6.036,6.036,0,0,1-3.212,5.312l-7,3.88-8.683-8.015-2.385-2.195,9.192-9.192,8.874,4.9A6.036,6.036,0,0,1,303.241,163.576Z" transform="translate(-255.533 -138.123)"/><path class="c" d="M59.477,24.435,34.923,1.789A6.332,6.332,0,0,1,36.068.93a6.4,6.4,0,0,1,6.488-.1L68.669,15.243Z" transform="translate(-33.046 0)"/><path class="d" d="M69.969,256.056,41.98,271.481a6.335,6.335,0,0,1-3.181.827,6.2,6.2,0,0,1-3.308-.922,5.786,5.786,0,0,1-1.209-.922L58.9,245.846l2.385,2.195Z" transform="translate(-32.47 -221.411)"/></svg>