<svg xmlns="http://www.w3.org/2000/svg" xmlns:xlink="http://www.w3.org/1999/xlink" width="365.291" height="371.937" viewBox="0 0 365.291 371.937"><defs><style>.a{fill:url(#a);}.b{fill:url(#d);}.c{fill:url(#g);}.d{fill:url(#m);}.e{filter:url(#k);}.f{filter:url(#h);}.g{filter:url(#e);}.h{filter:url(#b);}</style><linearGradient id="a" y1="0.5" x2="1" y2="0.5" gradientUnits="objectBoundingBox"><stop offset="0" stop-color="#ff9700"/><stop offset="1" stop-color="#ff2470"/></linearGradient><filter id="b" x="0" y="150.076" width="221.869" height="221.861" filterUnits="userSpaceOnUse"><feOffset dy="26" input="SourceAlpha"/><feGaussianBlur stdDeviation="26" result="c"/><feFlood flood-color="#c0651f" flood-opacity="0.271"/><feComposite operator="in" in2="c"/><feComposite in="SourceGraphic"/></filter><linearGradient id="d" x1="96.409" y1="-30.242" x2="97.786" y2="-30.242" xlink:href="#a"/><filter id="e" x="117.338" y="6.737" width="247.953" height="247.845" filterUnits="userSpaceOnUse"><feOffset dy="26" input="SourceAlpha"/><feGaussianBlur stdDeviation="26" result="f"/><feFlood flood-color="#c0651f" flood-opacity="0.271"/><feComposite operator="in" in2="f"/><feComposite in="SourceGraphic"/></filter><linearGradient id="g" x1="115.665" y1="-36.707" x2="117.035" y2="-36.707" xlink:href="#a"/><filter id="h" x="112.831" y="26.388" width="232.777" height="232.713" filterUnits="userSpaceOnUse"><feOffset dy="26" input="SourceAlpha"/><feGaussianBlur stdDeviation="26" result="i"/><feFlood flood-color="#c0651f" flood-opacity="0.271"/><feComposite operator="in" in2="i"/><feComposite in="SourceGraphic"/></filter><filter id="k" x="42.982" y="40.128" width="288.911" height="288.827" filterUnits="userSpaceOnUse"><feOffset dy="26" input="SourceAlpha"/><feGaussianBlur stdDeviation="26" result="l"/><feFlood flood-color="#c0651f" flood-opacity="0.271"/><feComposite operator="in" in2="l"/><feComposite in="SourceGraphic"/></filter><linearGradient id="m" x1="0.5" x2="0.5" y2="1" gradientUnits="objectBoundingBox"><stop offset="0" stop-color="#fd9325"/><stop offset="1" stop-color="#fc2d6c"/></linearGradient></defs><g transform="translate(-208.737 -232.59)"><g transform="translate(286.737 291.327)"><g transform="translate(0 0)"><g class="h" transform="matrix(1, 0, 0, 1, -78, -58.74)"><path class="a" d="M39.708,190.38,24.014,199.5A53.233,53.233,0,0,0,8.283,213.438L0,224.38H0a13.359,13.359,0,0,0,14.722-2.831l3.584-3.592,19.978,19.971L34.7,241.511a13.374,13.374,0,0,0-2.839,14.73h0L42.8,247.958a53.285,53.285,0,0,0,13.946-15.693l9.119-15.693Z" transform="translate(78 11.7)"/></g><g class="g" transform="matrix(1, 0, 0, 1, -78, -58.74)"><path class="b" d="M243.73,91.879a4.036,4.036,0,0,1-3.953-3.268A102.007,102.007,0,0,0,159.1,8.036a4.036,4.036,0,1,1,1.506-7.93A110.087,110.087,0,0,1,247.7,87.067a4.036,4.036,0,0,1-3.193,4.729A3.923,3.923,0,0,1,243.73,91.879Z" transform="translate(39.52 58.7)"/></g><g class="f" transform="matrix(1, 0, 0, 1, -78, -58.74)"><path class="c" d="M222.575,102.842a4.044,4.044,0,0,1-3.969-3.3,81.8,81.8,0,0,0-65.469-65.409,4.036,4.036,0,1,1,1.469-7.937,89.9,89.9,0,0,1,71.938,71.871,4.044,4.044,0,0,1-3.231,4.707A4.142,4.142,0,0,1,222.575,102.842Z" transform="translate(41 52.26)"/></g><g class="e" transform="matrix(1, 0, 0, 1, -78, -58.74)"><path class="a" d="M159.719,74.365c-24.383-24.414-54.031-29.233-69.137-29.971a16.808,16.808,0,0,0-15.407,8.494C58.36,82.294,54.263,127,58.8,148.381l27.109,27.109c21.394,4.518,66.162.437,95.568-16.416a16.823,16.823,0,0,0,8.5-15.294c-.633-15-5.309-44.429-30.061-69.2Z" transform="translate(63.9 47.75)"/></g></g></g><path class="d" d="M163.41,326.82a164.618,164.618,0,0,1-32.933-3.32,162.518,162.518,0,0,1-58.431-24.588,163.884,163.884,0,0,1-59.2-71.9A162.578,162.578,0,0,1,3.32,196.343a165,165,0,0,1,0-65.866A162.517,162.517,0,0,1,27.908,72.046a163.887,163.887,0,0,1,71.9-59.2A162.589,162.589,0,0,1,130.477,3.32a165.005,165.005,0,0,1,65.866,0,162.517,162.517,0,0,1,58.431,24.588,163.885,163.885,0,0,1,59.2,71.9,162.573,162.573,0,0,1,9.522,30.674,165,165,0,0,1,0,65.866,162.518,162.518,0,0,1-24.588,58.431,163.886,163.886,0,0,1-71.9,59.2,162.592,162.592,0,0,1-30.674,9.522A164.618,164.618,0,0,1,163.41,326.82Zm0-312.512c-82.215,0-149.1,66.887-149.1,149.1s66.887,149.1,149.1,149.1,149.1-66.887,149.1-149.1S245.625,14.308,163.41,14.308Z" transform="translate(228 232.59)"/></g></svg>